<?xml version="1.0" encoding="UTF-8"?>
<!-- Do not edit this file with editors other than diagrams.net -->
<!DOCTYPE svg PUBLIC "-//W3C//DTD SVG 1.1//EN" "http://www.w3.org/Graphics/SVG/1.1/DTD/svg11.dtd">
<svg xmlns="http://www.w3.org/2000/svg" xmlns:xlink="http://www.w3.org/1999/xlink" version="1.1" width="676px" height="794px" viewBox="-0.5 -0.5 676 794" content="&lt;mxfile host=&quot;app.diagrams.net&quot; modified=&quot;2023-05-13T05:13:58.339Z&quot; agent=&quot;Mozilla/5.0 (Windows NT 10.0; Win64; x64) AppleWebKit/537.36 (KHTML, like Gecko) Chrome/113.0.0.0 Safari/537.36&quot; etag=&quot;TuDFpitDuaqnaQGEC7Jc&quot; version=&quot;21.3.0&quot;&gt;&lt;diagram name=&quot;Page-1&quot; id=&quot;97916047-d0de-89f5-080d-49f4d83e522f&quot;&gt;7Vxbd5s4EP41ftlzkgMSF/G4duxmu02bxsk23Zc9si1jGox8ZMWX/fUrjLARUp1mAyZt8AMHDUIgfZpvRjPCHdibb94xvJhd0QmJO8CabDrwogMA8l1xTAXbTOAgOxOELJpkooJgGP1LpNCS0sdoQpZKRU5pzKOFKhzTJCFjrsgwY3StVpvSWH3qAodEEwzHOM6l5+5B/iWa8JmU215wuHBJonAmH46An10Y4fFDyOhjIp+Y0IRkV+Y4b0b2cjnDE7ouiGC/A3uMUp6dzTc9Eqfjmo9Zdt/gO1f3XWEk4T9yw3334XKzDv9aDofo02j47Yb0yJkrO7jk23w0yEQMjixSxmc0pAmO+wdpd9dfkjZridKhzgdKF0JoC+E3wvlWIo0fORWiGZ/H8uqSM/qwH2m4l/RoTNnuLeB05PpoJK7o3ZQ9X9JHNpbvDOSswSwkspaENO1N4TY5NO8InRPOtqICIzHm0UqdIFjOqHBf7zCw4kSOrXmcw/VgNV1Zwwm3wd93qH93hcIz4DUxzmLI2PY+vV/McFn8KpvbFS42SmkrS6fAx2sKH/kuKxw/yka/kJEQXJAVielinvajjNUBiXRYp1EcF4fCnbrE1QZpRwVCmKt9emfI8CQSDyjVmdKE51PBluXCAzD2/ekor5eBbTuyPMDzKE6Bu43mgkSB9ZGsxfGGznFyDJ4VYZxsjg69vOr5csgkvQPLzQlzfSBLYEmemxV40rNejpeRtzznTeuTq+uTjV4X4fktQCpArwwf1OJTUiDYFECuZpEGTDD7WV94la0lKlgiN/elc0uEAs0O2Y57SjvkNqxGniDagiKdWeeWhZ7Qpl3pmjABEyesLhXzXpON8jQV64qVW6thZQ1Dvq9qWGAZNAzWo2FIA+ny9upDC1ARIAepFAgDWwPIRzo+TvByfL5ZN58/OzBGQeSO/ozx9p/bXlOO3ibiBT9ClL4Wrhx4Ly0otFeP8zHoCmbs7hEu8duTVBkYqNI5ETMGmtLd4iheRy0zlnyPnPWk4rl+YFgF23Wtgo1OvGNrGDXoxNsv16OnPYyijhg9MlR54E/eek2jNDJ0iIoEynxAQLhevhcAmB1LDWbqLtsowb5/qRfMhFcVDzn5TKg+mri79XfG8LZQYZHCtzwyJ+zSnEBeEWytvu+BY/XFSfYG33saOnchcjw7OzpqWw4US4HDD9Q1H/MsTsGC3P0hbrq73wVVl1GYtJZEsSSe6sL5gdGS5A0rXpz3ckti2xpe/SSMo+VMCK8ZnUZjMaTjbQuasjCCqvn3fd3vtl2D8c/DEZUbf9iI8a88TJCH3RTnt7HkXf42BeXoDYetKij5oJKVgwHUVAH5Bk3wK8DH0fDpUsrFSONFi5K6XlF9C89FOmFZBhtTxWrFHCloJgf+S0UKbEPiIjgVN+p5iu5jPMet3h3TO9fSI6iBIUBXW5AANp2iaDbTZ5vyEEFj/oWeiLgheMzP37dOhupklBZJJjWyreCUegTeth4hgx41tonLjBBsESoHxqzGmE7P5r3HKzwcs2jRbrBTuM7Pd4DkCypkcNXtmnyG3BYWcPpINq1BetIgBSaQTpn9gY2sp6rfG2wZaMtuiraAHs3+SCfk2eowGEDxq1EdBrufQR2qIKRAjfAYnS9Q01zfv24hPr1ZMLJcvjUQ0NOEUxcIZsL5eT8WqTsb7NvAlG3LkwUAnu/TdOII1ea/k4t7ZsLPD0rx1YxQ60s5Wz/tbFDWMCeaIciuYk78D/AA0Pj0E58Rtmz9O4Vu84mQx8sNWY3advcYd7L4v4h/Z0jwmfvrNOb06Vm/azx+SD8bBdYVTsRJqy6qugQl6wPzb36fyodX4iLqWcAtZu02ExUht7xg/bGdwpUApIe5rxnllG8XURK2OCmGx1J3liBo2Axkiv5A67yCvSVmKn7bX4cdNU9KnKIxk3X0FQtqlyzmrboptOiotOgEQFO3uvKzRzcsFz9IjxiZMjEULVeWubK0iDLtwjNxJUBVcKU5KqInOn5Ley0wSv8FhD3sTkSvO2mwRhhGaKektSXp4lBQILBG6aXJ/p9Dfji65Q7cfp1gDwZpKKOe6FZQ+pRzH15XPjQz+I/B8/Wwk35Pm//NSraCPvyPDez/Bw==&lt;/diagram&gt;&lt;/mxfile&gt;"><defs/><g><path d="M 220.8 35.07 L 129.38 35.07 L 129.38 84.98" fill="none" stroke="#fb578b" stroke-width="3.45" stroke-miterlimit="10" pointer-events="stroke"/><path d="M 129.38 92.74 L 124.2 82.39 L 129.38 84.98 L 134.55 82.39 Z" fill="#fb578b" stroke="#fb578b" stroke-width="3.45" stroke-miterlimit="10" pointer-events="all"/><path d="M 450.8 35.07 L 538.77 35.07 L 538.78 86.13" fill="none" stroke="#fb578b" stroke-width="3.45" stroke-miterlimit="10" pointer-events="stroke"/><path d="M 538.78 93.89 L 533.6 83.54 L 538.78 86.13 L 543.95 83.54 Z" fill="#fb578b" stroke="#fb578b" stroke-width="3.45" stroke-miterlimit="10" pointer-events="all"/><rect x="220.8" y="0.57" width="230" height="69" rx="10.35" ry="10.35" fill="#000000" stroke="none" pointer-events="all" transform="translate(2.3,3.45)" opacity="0.25"/><rect x="220.8" y="0.57" width="230" height="69" rx="10.35" ry="10.35" fill="#f5f5e5" stroke="none" pointer-events="all"/><g fill="#aa77fb" font-family="Times New Roman" font-weight="bold" text-anchor="middle" font-size="16.099999999999998px"><text x="335.3" y="41.47">Web Development</text></g><path d="M 212.75 131.1 L 349.6 131.1 L 349.6 198.83" fill="none" stroke="#fb578b" stroke-width="3.45" stroke-miterlimit="10" pointer-events="stroke"/><path d="M 349.6 206.59 L 344.42 196.24 L 349.6 198.83 L 354.77 196.24 Z" fill="#fb578b" stroke="#fb578b" stroke-width="3.45" stroke-miterlimit="10" pointer-events="all"/><path d="M 129.38 165.6 L 129.38 189.75 L 44.85 189.75 L 44.85 202.28" fill="none" stroke="#fb578b" stroke-width="3.45" stroke-miterlimit="10" pointer-events="stroke"/><path d="M 44.85 210.04 L 39.67 199.69 L 44.85 202.28 L 50.02 199.69 Z" fill="#fb578b" stroke="#fb578b" stroke-width="3.45" stroke-miterlimit="10" pointer-events="all"/><path d="M 129.38 165.6 L 129.38 190.9 L 209.87 190.9 L 209.87 204.58" fill="none" stroke="#fb578b" stroke-width="3.45" stroke-miterlimit="10" pointer-events="stroke"/><path d="M 209.87 212.34 L 204.7 201.99 L 209.87 204.58 L 215.05 201.99 Z" fill="#fb578b" stroke="#fb578b" stroke-width="3.45" stroke-miterlimit="10" pointer-events="all"/><rect x="46" y="96.6" width="166.75" height="69" rx="10.35" ry="10.35" fill="#000000" stroke="none" pointer-events="all" transform="translate(2.3,3.45)" opacity="0.25"/><rect x="46" y="96.6" width="166.75" height="69" rx="10.35" ry="10.35" fill="#f5f5e5" stroke="none" pointer-events="all"/><g fill="#aa77fb" font-family="Times New Roman" font-weight="bold" text-anchor="middle" font-size="16.099999999999998px"><text x="128.88" y="137.5">Front-End</text></g><path d="M 456.55 132.25 L 366.85 132.25 L 366.84 198.28" fill="none" stroke="#fb578b" stroke-width="3.45" stroke-miterlimit="10" pointer-events="stroke"/><path d="M 366.83 206.04 L 361.66 195.69 L 366.84 198.28 L 372.01 195.69 Z" fill="#fb578b" stroke="#fb578b" stroke-width="3.45" stroke-miterlimit="10" pointer-events="all"/><rect x="456.55" y="97.75" width="164.45" height="69" rx="10.35" ry="10.35" fill="#000000" stroke="none" pointer-events="all" transform="translate(2.3,3.45)" opacity="0.25"/><rect x="456.55" y="97.75" width="164.45" height="69" rx="10.35" ry="10.35" fill="#f5f5e5" stroke="none" pointer-events="all"/><g fill="#aa77fb" font-family="Times New Roman" font-weight="bold" text-anchor="middle" font-size="16.099999999999998px"><text x="538.28" y="138.65">Back-End</text></g><rect x="0" y="213.9" width="89.7" height="56.35" rx="8.45" ry="8.45" fill="#000000" stroke="none" pointer-events="all" transform="translate(2.3,3.45)" opacity="0.25"/><rect x="0" y="213.9" width="89.7" height="56.35" rx="8.45" ry="8.45" fill="#f5f5e5" stroke="none" pointer-events="all"/><g fill="#aa77fb" font-family="Times New Roman" font-weight="bold" text-anchor="middle" font-size="16.099999999999998px"><text x="44.35" y="248.47">HTML</text></g><path d="M 129.95 499.67 L 129.69 509.33" fill="none" stroke="#fb578b" stroke-width="3.45" stroke-miterlimit="10" pointer-events="stroke"/><path d="M 129.48 517.09 L 124.59 506.61 L 129.69 509.33 L 134.93 506.89 Z" fill="#fb578b" stroke="#fb578b" stroke-width="3.45" stroke-miterlimit="10" pointer-events="all"/><rect x="72.45" y="430.67" width="115" height="69" rx="10.35" ry="10.35" fill="#000000" stroke="none" pointer-events="all" transform="translate(2.3,3.45)" opacity="0.25"/><rect x="72.45" y="430.67" width="115" height="69" rx="10.35" ry="10.35" fill="#f5f5e5" stroke="none" pointer-events="all"/><g fill="#aa77fb" font-family="Times New Roman" font-weight="bold" text-anchor="middle" font-size="16.099999999999998px"><text x="129.45" y="471.57">Tailwind</text></g><path d="M 228.85 707.34 L 323.15 707.92 L 323.15 695.29" fill="none" stroke="#fb578b" stroke-width="3.45" stroke-miterlimit="10" pointer-events="stroke"/><path d="M 323.15 687.53 L 328.32 697.88 L 323.15 695.29 L 317.97 697.88 Z" fill="#fb578b" stroke="#fb578b" stroke-width="3.45" stroke-miterlimit="10" pointer-events="all"/><path d="M 159.32 733.7 L 159.27 783.15 L 324.3 783.15 L 324.3 771.19" fill="none" stroke="#fb578b" stroke-width="3.45" stroke-miterlimit="10" pointer-events="stroke"/><path d="M 324.3 763.43 L 329.47 773.78 L 324.3 771.19 L 319.13 773.78 Z" fill="#fb578b" stroke="#fb578b" stroke-width="3.45" stroke-miterlimit="10" pointer-events="all"/><rect x="92" y="683.67" width="139.15" height="52.9" rx="7.93" ry="7.93" fill="#000000" stroke="none" pointer-events="all" transform="translate(2.3,3.45)" opacity="0.25"/><rect x="92" y="683.67" width="139.15" height="52.9" rx="7.93" ry="7.93" fill="#f5f5e5" stroke="none" pointer-events="all"/><g fill="#aa77fb" font-family="Times New Roman" font-weight="bold" text-anchor="middle" font-size="16.099999999999998px"><text x="161.07" y="716.52">UI/UX Design</text></g><rect x="405.95" y="650.9" width="172.5" height="51.75" rx="7.76" ry="7.76" fill="#000000" stroke="none" pointer-events="all" transform="translate(2.3,3.45)" opacity="0.25"/><rect x="405.95" y="650.9" width="172.5" height="51.75" rx="7.76" ry="7.76" fill="#f5f5e5" stroke="none" pointer-events="all"/><g fill="#aa77fb" font-family="Times New Roman" font-weight="bold" text-anchor="middle" font-size="16.099999999999998px"><text x="491.7" y="683.17">English Proficiency</text></g><path d="M 209.87 270.25 L 209.87 304.75 L 127.65 304.75 L 127.65 327.63" fill="none" stroke="#fb578b" stroke-width="3.45" stroke-miterlimit="10" pointer-events="stroke"/><path d="M 127.65 335.39 L 122.47 325.04 L 127.65 327.63 L 132.82 325.04 Z" fill="#fb578b" stroke="#fb578b" stroke-width="3.45" stroke-miterlimit="10" pointer-events="all"/><rect x="159.85" y="216.2" width="100.05" height="54.05" rx="8.11" ry="8.11" fill="#000000" stroke="none" pointer-events="all" transform="translate(2.3,3.45)" opacity="0.25"/><rect x="159.85" y="216.2" width="100.05" height="54.05" rx="8.11" ry="8.11" fill="#f5f5e5" stroke="none" pointer-events="all"/><g fill="#aa77fb" font-family="Times New Roman" font-weight="bold" text-anchor="middle" font-size="16.099999999999998px"><text x="209.37" y="249.62">CSS</text></g><rect x="71.3" y="520.95" width="116.15" height="69" rx="10.35" ry="10.35" fill="#000000" stroke="none" pointer-events="all" transform="translate(2.3,3.45)" opacity="0.25"/><rect x="71.3" y="520.95" width="116.15" height="69" rx="10.35" ry="10.35" fill="#f5f5e5" stroke="none" pointer-events="all"/><g fill="#aa77fb" font-family="Times New Roman" font-weight="bold" text-anchor="middle" font-size="16.099999999999998px"><text x="128.87" y="561.85">Bootstrap</text></g><path d="M 127.65 408.25 L 129.95 408.25 L 129.95 419.06" fill="none" stroke="#fb578b" stroke-width="3.45" stroke-miterlimit="10" pointer-events="stroke"/><path d="M 129.95 426.82 L 124.77 416.47 L 129.95 419.06 L 135.13 416.47 Z" fill="#fb578b" stroke="#fb578b" stroke-width="3.45" stroke-miterlimit="10" pointer-events="all"/><rect x="71.3" y="339.25" width="112.7" height="69" rx="10.35" ry="10.35" fill="#000000" stroke="none" pointer-events="all" transform="translate(2.3,3.45)" opacity="0.25"/><rect x="71.3" y="339.25" width="112.7" height="69" rx="10.35" ry="10.35" fill="#f5f5e5" stroke="none" pointer-events="all"/><g fill="#aa77fb" font-family="Times New Roman" font-weight="bold" text-anchor="middle" font-size="16.099999999999998px"><text x="127.15" y="380.15">Bulma</text></g><path d="M 269.68 408.25 L 269.68 431.25 L 269.93 440.33" fill="none" stroke="#fb578b" stroke-width="3.45" stroke-miterlimit="10" pointer-events="stroke"/><path d="M 270.14 448.09 L 264.68 437.89 L 269.93 440.33 L 275.03 437.6 Z" fill="#fb578b" stroke="#fb578b" stroke-width="3.45" stroke-miterlimit="10" pointer-events="all"/><rect x="207" y="339.25" width="125.35" height="69" rx="10.35" ry="10.35" fill="#000000" stroke="none" pointer-events="all" transform="translate(2.3,3.45)" opacity="0.25"/><rect x="207" y="339.25" width="125.35" height="69" rx="10.35" ry="10.35" fill="#f5f5e5" stroke="none" pointer-events="all"/><g fill="#aa77fb" font-family="Times New Roman" font-weight="bold" text-anchor="middle" font-size="16.099999999999998px"><text x="269.18" y="380.15">React.JS</text></g><path d="M 349.6 279.45 L 349.6 309.35 L 269.68 309.35 L 269.68 327.63" fill="none" stroke="#fb578b" stroke-width="3.45" stroke-miterlimit="10" pointer-events="stroke"/><path d="M 269.68 335.39 L 264.5 325.04 L 269.68 327.63 L 274.85 325.04 Z" fill="#fb578b" stroke="#fb578b" stroke-width="3.45" stroke-miterlimit="10" pointer-events="all"/><path d="M 349.6 279.45 L 349.6 309.35 L 435.85 309.35 L 435.85 327.63" fill="none" stroke="#fb578b" stroke-width="3.45" stroke-miterlimit="10" pointer-events="stroke"/><path d="M 435.85 335.39 L 430.68 325.04 L 435.85 327.63 L 441.03 325.04 Z" fill="#fb578b" stroke="#fb578b" stroke-width="3.45" stroke-miterlimit="10" pointer-events="all"/><rect x="281.75" y="210.45" width="135.7" height="69" rx="10.35" ry="10.35" fill="#000000" stroke="none" pointer-events="all" transform="translate(2.3,3.45)" opacity="0.25"/><rect x="281.75" y="210.45" width="135.7" height="69" rx="10.35" ry="10.35" fill="#f5f5e5" stroke="none" pointer-events="all"/><g fill="#aa77fb" font-family="Times New Roman" font-weight="bold" text-anchor="middle" font-size="16.099999999999998px"><text x="349.1" y="251.35">JavaScript</text></g><rect x="207" y="451.95" width="126.5" height="69" rx="10.35" ry="10.35" fill="#000000" stroke="none" pointer-events="all" transform="translate(2.3,3.45)" opacity="0.25"/><rect x="207" y="451.95" width="126.5" height="69" rx="10.35" ry="10.35" fill="#f5f5e5" stroke="none" pointer-events="all"/><g fill="#aa77fb" font-family="Times New Roman" font-weight="bold" text-anchor="middle" font-size="16.099999999999998px"><text x="269.75" y="492.85">Next.JS</text></g><path d="M 435.85 408.25 L 435.85 431.25 L 434.7 431.25 L 434.7 440.33" fill="none" stroke="#fb578b" stroke-width="3.45" stroke-miterlimit="10" pointer-events="stroke"/><path d="M 434.7 448.09 L 429.52 437.74 L 434.7 440.33 L 439.87 437.74 Z" fill="#fb578b" stroke="#fb578b" stroke-width="3.45" stroke-miterlimit="10" pointer-events="all"/><rect x="366.85" y="339.25" width="138" height="69" rx="10.35" ry="10.35" fill="#000000" stroke="none" pointer-events="all" transform="translate(2.3,3.45)" opacity="0.25"/><rect x="366.85" y="339.25" width="138" height="69" rx="10.35" ry="10.35" fill="#ff3333" stroke="none" pointer-events="all"/><g fill="#FFFFFF" font-family="Helvetica" font-weight="bold" text-anchor="middle" font-size="16.099999999999998px"><text x="435.35" y="380.15">Node.JS</text></g><rect x="365.7" y="451.95" width="138" height="69" rx="10.35" ry="10.35" fill="#000000" stroke="none" pointer-events="all" transform="translate(2.3,3.45)" opacity="0.25"/><rect x="365.7" y="451.95" width="138" height="69" rx="10.35" ry="10.35" fill="#ff3333" stroke="none" pointer-events="all"/><g fill="#FFFFFF" font-family="Helvetica" font-weight="bold" text-anchor="middle" font-size="16.099999999999998px"><text x="434.2" y="492.85">Express.JS</text></g><path d="M 266.8 596.23 L 159.85 596.85 L 159.39 669.18" fill="none" stroke="#fb578b" stroke-width="3.45" stroke-miterlimit="10" pointer-events="stroke"/><path d="M 159.34 676.94 L 154.23 666.56 L 159.39 669.18 L 164.58 666.63 Z" fill="#fb578b" stroke="#fb578b" stroke-width="3.45" stroke-miterlimit="10" pointer-events="all"/><path d="M 381.8 596.23 L 492.2 596.85 L 492.2 639.28" fill="none" stroke="#fb578b" stroke-width="3.45" stroke-miterlimit="10" pointer-events="stroke"/><path d="M 492.2 647.04 L 487.02 636.69 L 492.2 639.28 L 497.37 636.69 Z" fill="#fb578b" stroke="#fb578b" stroke-width="3.45" stroke-miterlimit="10" pointer-events="all"/><rect x="265.65" y="561.2" width="115" height="69" rx="10.35" ry="10.35" fill="#000000" stroke="none" pointer-events="all" transform="translate(2.3,3.45)" opacity="0.25"/><rect x="265.65" y="561.2" width="115" height="69" rx="10.35" ry="10.35" fill="#f5f5e5" stroke="none" pointer-events="all"/><g fill="#aa77fb" font-family="Times New Roman" font-weight="bold" text-anchor="middle" font-size="16.099999999999998px"><text x="322.65" y="602.1">Others</text></g><path d="M 585.35 271.4 L 585.35 318.43" fill="none" stroke="#fb578b" stroke-width="3.45" stroke-miterlimit="10" pointer-events="stroke"/><path d="M 585.35 326.19 L 580.17 315.84 L 585.35 318.43 L 590.52 315.84 Z" fill="#fb578b" stroke="#fb578b" stroke-width="3.45" stroke-miterlimit="10" pointer-events="all"/><rect x="499.1" y="202.4" width="172.5" height="69" rx="10.35" ry="10.35" fill="#000000" stroke="none" pointer-events="all" transform="translate(2.3,3.45)" opacity="0.25"/><rect x="499.1" y="202.4" width="172.5" height="69" rx="10.35" ry="10.35" fill="#f5f5e5" stroke="none" pointer-events="all"/><g fill="#aa77fb" font-family="Times New Roman" font-weight="bold" text-anchor="middle" font-size="16.099999999999998px"><text x="584.85" y="243.3">Package Managers</text></g><rect x="540.5" y="443.9" width="89.7" height="69" rx="10.35" ry="10.35" fill="#000000" stroke="none" pointer-events="all" transform="translate(2.3,3.45)" opacity="0.25"/><rect x="540.5" y="443.9" width="89.7" height="69" rx="10.35" ry="10.35" fill="#f5f5e5" stroke="none" pointer-events="all"/><g fill="#aa77fb" font-family="Times New Roman" font-weight="bold" text-anchor="middle" font-size="16.099999999999998px"><text x="584.85" y="484.8">yarn</text></g><rect x="256.45" y="724.5" width="135.7" height="35.08" rx="5.26" ry="5.26" fill="#000000" stroke="none" pointer-events="all" transform="translate(2.3,3.45)" opacity="0.25"/><rect x="256.45" y="724.5" width="135.7" height="35.08" rx="5.26" ry="5.26" fill="#f5f5e5" stroke="none" pointer-events="all"/><g fill="#aa77fb" font-family="Times New Roman" font-weight="bold" text-anchor="middle" font-size="16.099999999999998px"><text x="323.8" y="748.44">Prototyping</text></g><path d="M 585.35 399.05 L 585.35 422.05 L 585.35 432.28" fill="none" stroke="#fb578b" stroke-width="3.45" stroke-miterlimit="10" pointer-events="stroke"/><path d="M 585.35 440.04 L 580.18 429.69 L 585.35 432.28 L 590.53 429.69 Z" fill="#fb578b" stroke="#fb578b" stroke-width="3.45" stroke-miterlimit="10" pointer-events="all"/><rect x="529" y="330.05" width="112.7" height="69" rx="10.35" ry="10.35" fill="#000000" stroke="none" pointer-events="all" transform="translate(2.3,3.45)" opacity="0.25"/><rect x="529" y="330.05" width="112.7" height="69" rx="10.35" ry="10.35" fill="#f5f5e5" stroke="none" pointer-events="all"/><g fill="#aa77fb" font-family="Times New Roman" font-weight="bold" text-anchor="middle" font-size="16.099999999999998px"><text x="584.85" y="370.95">npm</text></g><rect x="255.3" y="650.9" width="135.7" height="32.77" rx="4.92" ry="4.92" fill="#000000" stroke="none" pointer-events="all" transform="translate(2.3,3.45)" opacity="0.25"/><rect x="255.3" y="650.9" width="135.7" height="32.77" rx="4.92" ry="4.92" fill="#f5f5e5" stroke="none" pointer-events="all"/><g fill="#aa77fb" font-family="Times New Roman" font-weight="bold" text-anchor="middle" font-size="16.099999999999998px"><text x="322.65" y="673.69">Wireframing</text></g><rect x="506" y="523.25" width="161" height="103.5" rx="15.52" ry="15.52" fill="#000000" stroke="none" pointer-events="all" transform="translate(2.3,3.45)" opacity="0.25"/><rect x="506" y="523.25" width="161" height="103.5" rx="15.52" ry="15.52" fill="#f5f5e5" stroke="none" pointer-events="all"/><g fill="#FF0000" font-family="Helvetica" font-weight="bold" text-anchor="middle" font-size="16.099999999999998px"><text x="586" y="571.63">* Red marked are </text><text x="586" y="591.17">yet to be done</text></g></g></svg>